<svg xmlns="http://www.w3.org/2000/svg" viewBox="0 0 64 64" fill="none" aria-label="ByteStreams logo">
  <defs>
    <linearGradient id="bsGrad" x1="0" y1="0" x2="64" y2="64" gradientUnits="userSpaceOnUse">
      <stop offset="0%" stop-color="#2563EB"/>
      <stop offset="100%" stop-color="#06B6D4"/>
    </linearGradient>
    <linearGradient id="bsGradSoft" x1="0" y1="0" x2="64" y2="64" gradientUnits="userSpaceOnUse">
      <stop offset="0%" stop-color="#F0F6FC" stop-opacity="0.95"/>
      <stop offset="100%" stop-color="#3B82F6" stop-opacity="0.9"/>
    </linearGradient>
  </defs>
  <!-- Outer ring -->
  <circle cx="32" cy="32" r="28" fill="url(#bsGrad)" opacity="0.18"/>
  <circle cx="32" cy="32" r="22" fill="url(#bsGradSoft)"/>
  <!-- "B" wordmark glyph -->
  <path d="M25 20h9a7 7 0 0 1 3.2 13.2A7.5 7.5 0 0 1 34.5 46H25V20Zm4 4v7h5a3.5 3.5 0 0 0 0-7h-5Zm0 11v7h5.5a3.5 3.5 0 0 0 0-7H29Z"
        fill="#0D1117"/>
  <!-- Upward arrow — "stronger results" momentum -->
  <path d="M48 12v14m0-14-6 6m6-6 6 6" stroke="#F0F6FC" stroke-width="3" stroke-linecap="round" stroke-linejoin="round"/>
</svg>
